<svg class="mosaic-top" width="127" height="113" viewBox="0 0 127 113" fill="none" xmlns="http://www.w3.org/2000/svg">
                    <g clip-path="url(#clip0_914_47435)">
                        <path d="M25.7199 30.9899H0.723602C0.429885 30.9899 0.166552 30.8183 0.0551423 30.5456C-0.0562676 30.273 0.00450142 29.9701 0.207065 29.758L78.4979 -48.788C78.6295 -48.9293 78.822 -49 79.0144 -49H105.277C105.57 -49 105.834 -48.8283 105.945 -48.5557C106.057 -48.2831 105.996 -47.9701 105.783 -47.7681L26.2263 30.788C26.0947 30.9192 25.9124 31 25.7199 31V30.9899ZM2.46565 29.546H25.4161L103.514 -47.5561H79.3183L2.46565 29.546Z" fill="white" fill-opacity="0.3"></path>
                        <path d="M66.2619 30H40.7162C40.4253 30 40.1646 29.8266 40.0542 29.5512C39.9439 29.2759 40.0041 28.9597 40.2147 28.7557L98.0761 -29.7858C98.2065 -29.9184 98.3971 -30 98.5776 -30H124.284C124.575 -30 124.835 -29.8266 124.946 -29.5512C125.056 -29.2759 124.996 -28.9597 124.785 -28.7557L66.7634 29.7858C66.633 29.9184 66.4424 30 66.2619 30ZM42.4513 28.5416H65.961L122.539 -28.5416H98.8685L42.4413 28.5416H42.4513Z" fill="white" fill-opacity="0.3"></path>
                        <path d="M104.946 31H78.7294C78.4333 31 78.1679 30.8266 78.0556 30.5512C77.9433 30.2759 78.0045 29.9699 78.2087 29.7557L117.533 -9.78582C117.666 -9.91841 117.86 -10 118.054 -10H144.271C144.567 -10 144.832 -9.82662 144.944 -9.55125C145.057 -9.27587 144.995 -8.9699 144.791 -8.75572L105.467 30.7858C105.334 30.9286 105.14 31 104.946 31ZM80.4853 29.5415H104.64L142.515 -8.54154H118.36L80.4853 29.5415Z" fill="white" fill-opacity="0.3"></path>
                        <path d="M104.731 107.99C104.548 107.99 104.355 107.919 104.213 107.777C103.929 107.493 103.929 107.038 104.213 106.754L182.244 29.2905L124.094 -28.7641C123.81 -29.0478 123.81 -29.5036 124.094 -29.7873C124.378 -30.0709 124.835 -30.0709 125.119 -29.7873L183.787 28.784C183.919 28.9157 184 29.1081 184 29.3006C184 29.4931 183.919 29.6754 183.787 29.8172L105.238 107.787C105.096 107.929 104.913 108 104.731 108V107.99Z" fill="white" fill-opacity="0.3"></path>
                        <path d="M26.5367 30.0906H0.617188L79.5093 107.667H104.488L26.5367 30.0906Z" fill="white" fill-opacity="0.3"></path>
                        <path d="M104.492 108.386H79.5234C79.3311 108.386 79.149 108.315 79.0174 108.173L0.115105 30.6068C-0.0974334 30.4044 -0.158159 30.0907 -0.0468291 29.8174C0.0645004 29.5441 0.327643 29.3721 0.621148 29.3721H26.5407C26.733 29.3721 26.9152 29.453 27.0467 29.5846L104.998 107.151C105.21 107.353 105.271 107.667 105.16 107.94C105.048 108.214 104.785 108.386 104.492 108.386ZM79.8169 106.938H102.741L26.2472 30.8194H2.3923L79.8169 106.938Z" fill="white" fill-opacity="0.3"></path>
                        <path d="M66.0335 29.6858H40.0938L98.3495 88.2755H124.127L66.0335 29.6858Z" fill="white" fill-opacity="0.3"></path>
                        <path d="M124.124 89.0043H98.346C98.1537 89.0043 97.9715 88.9233 97.8298 88.7917L39.5741 30.202C39.3717 29.9996 39.311 29.6859 39.4223 29.4126C39.5336 29.1393 39.7968 28.9673 40.0903 28.9673H66.0301C66.2224 28.9673 66.4045 29.0483 66.5462 29.1798L124.64 87.7695C124.842 87.9719 124.903 88.2857 124.792 88.5589C124.68 88.8322 124.417 89.0043 124.124 89.0043ZM98.6496 87.557H122.383L65.7264 30.4146H41.8311L98.6496 87.557Z" fill="white" fill-opacity="0.3"></path>
                        <path d="M104.662 29.9087H78.6719L117.88 68.8336H143.86L104.662 29.9087Z" fill="white" fill-opacity="0.3"></path>
                        <path d="M143.859 69.5521H117.868C117.676 69.5521 117.494 69.4812 117.362 69.3395L78.1542 30.4147C77.9416 30.2123 77.8809 29.8985 77.9922 29.6253C78.1036 29.352 78.3667 29.1799 78.6602 29.1799H104.651C104.843 29.1799 105.025 29.2508 105.157 29.3925L144.365 68.3173C144.577 68.5198 144.638 68.8335 144.527 69.1068C144.415 69.38 144.152 69.5521 143.859 69.5521ZM118.172 68.1048H142.108L104.357 30.6272H80.4212L118.172 68.1048Z" fill="white" fill-opacity="0.3"></path>
                    </g>
                    <defs>
                        <clipPath id="clip0_914_47435">
                            <rect width="231" height="113" fill="white"></rect>
                        </clipPath>
                    </defs>
                </svg>