                <svg class="mosaic-bottom" width="114" height="139" viewBox="0 0 114 139" fill="none" xmlns="http://www.w3.org/2000/svg">
                    <g clip-path="url(#clip0_914_47414)">
                        <path d="M32.9197 101.384H1.52598C1.15709 101.384 0.826366 101.168 0.686442 100.825C0.546519 100.481 0.622841 100.1 0.877247 99.8326L99.2051 0.881384C99.3705 0.7033 99.6122 0.614258 99.8539 0.614258H132.838C133.206 0.614258 133.537 0.830503 133.677 1.17395C133.817 1.5174 133.741 1.91173 133.474 2.16613L33.5557 101.13C33.3903 101.295 33.1614 101.397 32.9197 101.397V101.384ZM3.71387 99.5654H32.5381L130.624 2.43326H100.235L3.71387 99.5654Z" fill="white" fill-opacity="0.3"></path>
                        <path d="M83.8382 100.43H51.4396C51.0707 100.43 50.74 100.214 50.6 99.8707C50.4601 99.5273 50.5364 99.133 50.8036 98.8786L124.187 25.8641C124.352 25.6987 124.594 25.5969 124.823 25.5969H157.425C157.794 25.5969 158.125 25.8132 158.265 26.1566C158.405 26.5001 158.328 26.8944 158.061 27.1488L84.4742 100.163C84.3088 100.329 84.0671 100.43 83.8382 100.43ZM53.6402 98.6114H83.4566L155.212 27.4159H125.192L53.6275 98.6114H53.6402Z" fill="white" fill-opacity="0.3"></path>
                        <path d="M132.512 101.384H99.8463C99.4774 101.384 99.1467 101.168 99.0068 100.825C98.8668 100.481 98.9432 100.1 99.1976 99.8325L148.196 50.5159C148.362 50.3505 148.603 50.2488 148.845 50.2488H181.511C181.879 50.2488 182.21 50.465 182.35 50.8085C182.49 51.1519 182.414 51.5335 182.159 51.8007L133.161 101.117C132.995 101.295 132.754 101.384 132.512 101.384ZM102.034 99.5654H132.13L179.323 52.0678H149.226L102.034 99.5654Z" fill="white" fill-opacity="0.3"></path>
                        <path d="M34.1392 100.596H1.5625L100.717 198.097H132.111L34.1392 100.596Z" fill="white" fill-opacity="0.3"></path>
                        <path d="M132.113 199H100.732C100.49 199 100.261 198.911 100.096 198.733L0.928566 101.245C0.66144 100.99 0.585118 100.596 0.725041 100.252C0.864964 99.9089 1.19569 99.6926 1.56458 99.6926H34.1413C34.3829 99.6926 34.6119 99.7944 34.7773 99.9598L132.749 197.448C133.016 197.703 133.092 198.097 132.953 198.44C132.813 198.784 132.482 199 132.113 199ZM101.101 197.181H129.912L33.7724 101.512H3.79063L101.101 197.181Z" fill="white" fill-opacity="0.3"></path>
                        <path d="M83.774 100.087H51.1719L124.39 173.725H156.788L83.774 100.087Z" fill="white" fill-opacity="0.3"></path>
                        <path d="M156.791 174.641H124.392C124.151 174.641 123.922 174.539 123.744 174.374L50.5257 100.736C50.2713 100.481 50.195 100.087 50.3349 99.7435C50.4748 99.4001 50.8055 99.1838 51.1744 99.1838H83.7765C84.0182 99.1838 84.2472 99.2856 84.4253 99.451L157.44 173.089C157.694 173.343 157.771 173.737 157.631 174.081C157.491 174.424 157.16 174.641 156.791 174.641ZM124.774 172.822H154.603L83.3949 101.003H53.3623L124.774 172.822Z" fill="white" fill-opacity="0.3"></path>
                        <path d="M132.33 100.367H99.6641L148.942 149.289H181.595L132.33 100.367Z" fill="white" fill-opacity="0.3"></path>
                        <path d="M181.595 150.192H148.929C148.687 150.192 148.458 150.103 148.293 149.925L99.0145 101.003C98.7474 100.748 98.6711 100.354 98.811 100.011C98.9509 99.6672 99.2816 99.4509 99.6505 99.4509H132.316C132.558 99.4509 132.787 99.54 132.952 99.7181L182.231 148.64C182.498 148.895 182.574 149.289 182.434 149.633C182.294 149.976 181.964 150.192 181.595 150.192ZM149.311 148.373H179.394L131.947 101.27H101.864L149.311 148.373Z" fill="white" fill-opacity="0.3"></path>
                    </g>
                    <defs>
                        <clipPath id="clip0_914_47414">
                            <rect width="231.433" height="198.386" fill="white" transform="translate(0.625 0.614258)"></rect>
                        </clipPath>
                    </defs>
                </svg>