<svg
   width="20.014118"
   height="14.012008"
   viewBox="0 0 20.014118 14.012008"
   fill="none"
   xmlns="http://www.w3.org/2000/svg">
  <path
     d="m 19.606971,2.20301 c -0.1139,-0.4226 -0.3365,-0.808 -0.6456,-1.11783 -0.3091,-0.30984198 -0.694,-0.53331198 -1.1164,-0.648173 -1.566,-0.42999961 -7.831,-0.4369994041308 -7.831,-0.4369994041308 0,0 -6.2639695,-0.00699999587 -7.8309695,0.4039994041308 -0.42208,0.12014702 -0.80618,0.34677802 -1.11543,0.658133 -0.30926,0.31136 -0.53328,0.69699 -0.65057003,1.11987 -0.413,1.566 -0.4170000048321,4.814 -0.4170000048321,4.814 0,0 -0.00399999517,3.26399 0.4060000048321,4.81399 0.23000003,0.857 0.90500003,1.534 1.76300003,1.765 1.582,0.43 7.8299696,0.437 7.8299696,0.437 0,0 6.2649999,0.007 7.8309999,-0.403 0.4225,-0.1147 0.8078,-0.3376 1.1177,-0.6468 0.3099,-0.3092 0.5337,-0.694 0.6493,-1.1162 0.414,-1.565 0.417,-4.81199 0.417,-4.81199 0,0 0.02,-3.265 -0.407,-4.831 z M 8.0100015,10.005 l 0.005,-5.99999 5.2069695,3.005 z"
     fill="#151515"
   />
</svg>
